<?xml version="1.0" encoding="UTF-8" standalone="no"?>
<svg width="490px" height="484px" viewBox="0 0 490 484" version="1.1" xmlns="http://www.w3.org/2000/svg" xmlns:xlink="http://www.w3.org/1999/xlink" xmlns:sketch="http://www.bohemiancoding.com/sketch/ns">
    <!-- Generator: Sketch 3.5.2 (25235) - http://www.bohemiancoding.com/sketch -->
    <title>drawing</title>
    <desc>Created with Sketch.</desc>
    <defs></defs>
    <g id="Page-1" stroke="none" stroke-width="1" fill="none" fill-rule="evenodd" sketch:type="MSPage">
        <g id="drawing" sketch:type="MSLayerGroup" transform="translate(244.500000, 242.000000) scale(-1, 1) translate(-244.500000, -242.000000) translate(-1.000000, 0.000000)" fill="#4A4A4A">
            <g id="Group" sketch:type="MSShapeGroup">
                <path d="M112.194,0.465 L18.832,0.465 C8.448,0.465 0,8.912 0,19.295 L0,464.725 C0,475.108 8.448,483.555 18.832,483.555 L112.194,483.555 C122.577,483.555 131.024,475.108 131.024,464.725 L131.024,19.295 C131.024,8.912 122.577,0.465 112.194,0.465 L112.194,0.465 Z M112.194,469.555 L18.832,469.555 C16.168,469.555 14,467.388 14,464.725 L14,19.295 C14,16.632 16.168,14.465 18.832,14.465 L112.194,14.465 C114.857,14.465 117.024,16.632 117.024,19.295 L117.024,112.531 L53.445,112.531 C49.579,112.531 46.445,115.665 46.445,119.531 C46.445,123.397 49.579,126.531 53.445,126.531 L117.024,126.531 L117.024,151.207 L82.041,151.207 C78.175,151.207 75.041,154.341 75.041,158.207 C75.041,162.073 78.175,165.207 82.041,165.207 L117.024,165.207 L117.024,189.886 L53.445,189.886 C49.579,189.886 46.445,193.02 46.445,196.886 C46.445,200.752 49.579,203.886 53.445,203.886 L117.024,203.886 L117.024,228.564 L82.041,228.564 C78.175,228.564 75.041,231.698 75.041,235.564 C75.041,239.43 78.175,242.564 82.041,242.564 L117.024,242.564 L117.024,267.241 L53.445,267.241 C49.579,267.241 46.445,270.375 46.445,274.241 C46.445,278.107 49.579,281.241 53.445,281.241 L117.024,281.241 L117.024,305.919 L82.041,305.919 C78.175,305.919 75.041,309.053 75.041,312.919 C75.041,316.785 78.175,319.919 82.041,319.919 L117.024,319.919 L117.024,344.596 L53.445,344.596 C49.579,344.596 46.445,347.73 46.445,351.596 C46.445,355.462 49.579,358.596 53.445,358.596 L117.024,358.596 L117.024,383.274 L82.017,383.274 C78.151,383.274 75.017,386.408 75.017,390.274 C75.017,394.14 78.151,397.274 82.017,397.274 L117.025,397.274 L117.025,421.952 L53.457,421.952 C49.591,421.952 46.457,425.086 46.457,428.952 C46.457,432.818 49.591,435.952 53.457,435.952 L117.024,435.952 L117.024,464.724 C117.024,467.388 114.857,469.555 112.194,469.555 L112.194,469.555 Z" id="Shape"></path>
                <path d="M65.514,80.82 C78.736,80.82 89.493,70.062 89.493,56.84 C89.493,43.617 78.736,32.861 65.514,32.861 C52.291,32.861 41.534,43.618 41.534,56.84 C41.534,70.063 52.291,80.82 65.514,80.82 L65.514,80.82 Z M65.514,46.861 C71.016,46.861 75.493,51.337 75.493,56.84 C75.493,62.343 71.016,66.82 65.514,66.82 C60.011,66.82 55.534,62.343 55.534,56.84 C55.534,51.338 60.011,46.861 65.514,46.861 L65.514,46.861 Z" id="Shape"></path>
                <path d="M255.514,405.944 L342.785,405.944 C342.792,405.944 342.8,405.945 342.805,405.944 C346.671,405.944 349.805,402.81 349.805,398.944 C349.805,397.286 349.182,395.8 348.266,394.564 C325.559,363.924 283.796,300.027 261.264,269.258 C259.426,266.748 256.343,265.656 253.422,266.57 C250.502,267.485 248.514,270.19 248.514,273.25 L248.514,398.944 C248.514,402.81 251.648,405.944 255.514,405.944 L255.514,405.944 Z M262.514,295.606 L329.404,391.944 L262.514,391.944 L262.514,295.606 L262.514,295.606 Z" id="Shape"></path>
                <path d="M488.538,472.19 C405.465,357.885 172.474,3.608 172.474,3.608 C170.753,1.057 167.568,-0.072 164.624,0.828 C161.681,1.728 159.671,4.445 159.671,7.522 L159.671,476.498 C159.671,480.364 162.805,483.498 166.671,483.498 L483,483.498 L483.02,483.498 C486.886,483.498 490.02,480.364 490.02,476.498 C490.02,474.873 489.425,473.41 488.538,472.19 L488.538,472.19 Z M173.671,469.498 L173.671,435.812 L205.136,435.812 C209.002,435.812 212.136,432.678 212.136,428.812 C212.136,424.946 209.002,421.812 205.136,421.812 L173.671,421.812 L173.671,404.143 L188.311,404.143 C192.177,404.143 195.311,401.009 195.311,397.143 C195.311,393.277 192.177,390.143 188.311,390.143 L173.671,390.143 L173.671,372.475 L205.136,372.475 C209.002,372.475 212.136,369.341 212.136,365.475 C212.136,361.609 209.002,358.475 205.136,358.475 L173.671,358.475 L173.671,340.805 L188.311,340.805 C192.177,340.805 195.311,337.671 195.311,333.805 C195.311,329.939 192.177,326.805 188.311,326.805 L173.671,326.805 L173.671,309.136 L205.136,309.136 C209.002,309.136 212.136,306.002 212.136,302.136 C212.136,298.27 209.002,295.136 205.136,295.136 L173.671,295.136 L173.671,277.467 L188.311,277.467 C192.177,277.467 195.311,274.333 195.311,270.467 C195.311,266.601 192.177,263.467 188.311,263.467 L173.671,263.467 L173.671,245.798 L205.136,245.798 C209.002,245.798 212.136,242.664 212.136,238.798 C212.136,234.932 209.002,231.798 205.136,231.798 L173.671,231.798 L173.671,214.128 L188.311,214.128 C192.177,214.128 195.311,210.994 195.311,207.128 C195.311,203.262 192.177,200.128 188.311,200.128 L173.671,200.128 L173.671,182.458 L205.136,182.458 C209.002,182.458 212.136,179.324 212.136,175.458 C212.136,171.592 209.002,168.458 205.136,168.458 L173.671,168.458 L173.671,150.79 L188.311,150.79 C192.177,150.79 195.311,147.656 195.311,143.79 C195.311,139.924 192.177,136.79 188.311,136.79 L173.671,136.79 L173.671,119.12 L205.136,119.12 C209.002,119.12 212.136,115.986 212.136,112.12 C212.136,108.254 209.002,105.12 205.136,105.12 L173.671,105.12 L173.671,30.419 L469.835,469.499 L173.671,469.499 L173.671,469.498 Z" id="Shape"></path>
            </g>
        </g>
    </g>
</svg>